<svg width="70" height="70" viewBox="0 0 70 70" fill="none" xmlns="http://www.w3.org/2000/svg">
<g clip-path="url(#clip0_2_2472)">
<g clip-path="url(#clip1_2_2472)">
<g clip-path="url(#clip2_2_2472)">
<path d="M51.875 64.25V67.625C51.875 68.2438 51.3688 68.75 50.75 68.75H19.25C18.6312 68.75 18.125 68.2438 18.125 67.625V64.25H28.25H41.75H51.875Z" fill="#969FAA"/>
</g>
<g clip-path="url(#clip3_2_2472)">
<path d="M28.25 59.75V64.25H18.125V62C18.125 60.7625 19.1375 59.75 20.375 59.75H28.25Z" fill="#969FAA"/>
</g>
<g clip-path="url(#clip4_2_2472)">
<path d="M51.875 62V64.25H41.75V59.75H49.625C50.8625 59.75 51.875 60.7625 51.875 62Z" fill="#969FAA"/>
</g>
<g clip-path="url(#clip5_2_2472)">
<path d="M41.75 59.75V64.25H28.25V59.75V55.25H41.75V59.75Z" fill="#AAB2BD"/>
</g>
<g clip-path="url(#clip6_2_2472)">
<path d="M66.5 46.25V53C66.5 54.2375 65.4875 55.25 64.25 55.25H41.75H28.25H3.5C2.2625 55.25 1.25 54.2375 1.25 53V46.25H5.75H23.75H41.75H66.5Z" fill="#CCD1D9"/>
</g>
<g clip-path="url(#clip7_2_2472)">
<path d="M66.5 46.25H1.25V12.5C1.25 11.2569 2.25688 10.25 3.5 10.25H66.5V46.25Z" fill="#69D6F4"/>
</g>
<g clip-path="url(#clip8_2_2472)">
<path d="M48.5 37.25H53V41.75H48.5V37.25Z" fill="#FF826E"/>
</g>
<g clip-path="url(#clip9_2_2472)">
<path d="M57.5 28.25H62V32.75H57.5V28.25Z" fill="#FF826E"/>
</g>
<g clip-path="url(#clip10_2_2472)">
<path d="M57.5 37.25H62V41.75H57.5V37.25Z" fill="#B4DD7F"/>
</g>
<g clip-path="url(#clip11_2_2472)">
<path d="M48.5 28.25H53V32.75H48.5V28.25Z" fill="#B4DD7F"/>
</g>
<g clip-path="url(#clip12_2_2472)">
<path d="M15.875 17C15.875 17.5625 15.9312 18.1137 16.0437 18.6425L16.01 18.6537L15.2 18.17C12.8262 16.7412 11.375 14.1875 11.375 11.42V11.375C11.375 10.9925 11.3975 10.6212 11.4425 10.25C11.9938 5.1875 16.2912 1.25 21.5 1.25H35C35.6187 1.25 36.1812 1.4975 36.5863 1.91375C37.0025 2.31875 37.25 2.88125 37.25 3.5C37.25 5.21 36.62 6.79625 35.5513 8.01125C34.595 9.125 33.2675 9.92375 31.7375 10.2275L31.625 10.25H27.6875C25.0775 10.25 22.4675 9.92375 19.925 9.29375C19.475 9.18125 19.0137 9.125 18.5525 9.125C17.0675 9.125 15.875 10.3175 15.875 11.8025V17Z" fill="#B27946"/>
</g>
<g clip-path="url(#clip13_2_2472)">
<path d="M36.0577 10.25C36.1027 10.6212 36.1252 10.9925 36.1252 11.375V11.42C36.1252 14.1875 34.674 16.7412 32.3002 18.17L31.4902 18.6537C31.5802 18.1925 31.6252 17.72 31.6252 17.2362V10.25L31.7377 10.2275C33.2677 9.92373 34.5952 9.12498 35.5515 8.01123C35.799 8.73123 35.979 9.47373 36.0577 10.25Z" fill="#B27946"/>
</g>
<g clip-path="url(#clip14_2_2472)">
<path d="M33.29 27.9688L32.75 27.8788L28.25 27.125L23.75 33.875L19.25 27.125L14.75 27.8788L14.21 27.9688C9.3275 28.7788 5.75 32.9975 5.75 37.9475V46.25H23.75H41.75V37.9475C41.75 32.9975 38.1725 28.7788 33.29 27.9688Z" fill="#E6E9ED"/>
</g>
<g clip-path="url(#clip15_2_2472)">
<path d="M32.75 41.75C33.9926 41.75 35 40.7426 35 39.5C35 38.2574 33.9926 37.25 32.75 37.25C31.5074 37.25 30.5 38.2574 30.5 39.5C30.5 40.7426 31.5074 41.75 32.75 41.75Z" fill="#FCD770"/>
</g>
<g clip-path="url(#clip16_2_2472)">
<path d="M20.0487 23.9526C21.1625 24.5376 22.4338 24.8751 23.7838 24.8751H23.9862C25.235 24.8751 26.4275 24.5714 27.4737 24.0314L28.25 27.1251L23.75 33.8751L19.25 27.1251L20.0487 23.9526Z" fill="#F0D0B4"/>
</g>
<g clip-path="url(#clip17_2_2472)">
<path d="M20.0487 23.9525C18.0237 22.8725 16.5387 20.9487 16.0437 18.6425C15.9312 18.1137 15.875 17.5625 15.875 17V11.8025C15.875 10.3175 17.0675 9.125 18.5525 9.125C19.0137 9.125 19.475 9.18125 19.925 9.29375C22.4675 9.92375 25.0775 10.25 27.6875 10.25H31.625V17.2362C31.625 17.72 31.58 18.1925 31.49 18.6537C31.0512 21.005 29.5325 22.9738 27.4737 24.0312C26.4275 24.5712 25.235 24.875 23.9862 24.875H23.7838C22.4338 24.875 21.1625 24.5375 20.0487 23.9525Z" fill="#F0D0B4"/>
</g>
<g clip-path="url(#clip18_2_2472)">
<path d="M68.75 3.5V21.5C68.75 22.7375 67.7375 23.75 66.5 23.75H47.375L44.45 27.6537C44.1688 28.025 43.7188 28.25 43.2463 28.25C42.425 28.25 41.75 27.575 41.75 26.7537V10.25V3.5C41.75 2.2625 42.7625 1.25 44 1.25H66.5C67.7375 1.25 68.75 2.2625 68.75 3.5Z" fill="#E6E9ED"/>
</g>
<g clip-path="url(#clip19_2_2472)">
<path d="M62 11.375V13.625C62 14.2437 61.4937 14.75 60.875 14.75H57.5V18.125C57.5 18.7437 56.9937 19.25 56.375 19.25H54.125C53.5062 19.25 53 18.7437 53 18.125V14.75H49.625C49.0062 14.75 48.5 14.2437 48.5 13.625V11.375C48.5 10.7562 49.0062 10.25 49.625 10.25H53V6.875C53 6.25625 53.5062 5.75 54.125 5.75H56.375C56.9937 5.75 57.5 6.25625 57.5 6.875V10.25H60.875C61.4937 10.25 62 10.7562 62 11.375Z" fill="#FCD770"/>
</g>
</g>
<g clip-path="url(#clip20_2_2472)">
<path d="M20.375 15.875C20.9963 15.875 21.5 15.3713 21.5 14.75C21.5 14.1287 20.9963 13.625 20.375 13.625C19.7537 13.625 19.25 14.1287 19.25 14.75C19.25 15.3713 19.7537 15.875 20.375 15.875Z" fill="black"/>
<path d="M27.125 15.875C27.7463 15.875 28.25 15.3713 28.25 14.75C28.25 14.1287 27.7463 13.625 27.125 13.625C26.5037 13.625 26 14.1287 26 14.75C26 15.3713 26.5037 15.875 27.125 15.875Z" fill="black"/>
<path d="M25.9999 17.8596C25.5713 18.7168 24.7095 19.2501 23.7499 19.2501C22.7903 19.2501 21.9285 18.7168 21.4999 17.8596L21.3818 17.6222L19.3691 18.6291L19.4873 18.8665C20.2995 20.491 21.933 21.5001 23.7499 21.5001C25.5668 21.5001 27.2003 20.491 28.0125 18.8653L28.1306 18.628L26.118 17.6211L25.9999 17.8596Z" fill="black"/>
<path d="M60.875 9.125H58.625V6.875C58.625 5.63412 57.6159 4.625 56.375 4.625H54.125C52.8841 4.625 51.875 5.63412 51.875 6.875V9.125H49.625C48.3841 9.125 47.375 10.1341 47.375 11.375V13.625C47.375 14.8659 48.3841 15.875 49.625 15.875H51.875V18.125C51.875 19.3659 52.8841 20.375 54.125 20.375H56.375C57.6159 20.375 58.625 19.3659 58.625 18.125V15.875H60.875C62.1159 15.875 63.125 14.8659 63.125 13.625V11.375C63.125 10.1341 62.1159 9.125 60.875 9.125ZM60.875 13.625H56.375V18.125H54.125V13.625H49.625V11.375H54.125V6.875H56.375V11.375L60.875 11.3784V13.625Z" fill="black"/>
<path d="M66.5 0.125H44C42.1393 0.125 40.625 1.63925 40.625 3.5V9.125H37.0149C36.9553 8.83025 36.8844 8.53887 36.8011 8.25087C37.7945 6.911 38.375 5.2595 38.375 3.5C38.375 1.63925 36.8607 0.125 35 0.125H21.5C16.0764 0.125 11.5381 3.98263 10.4818 9.125H3.5C1.63925 9.125 0.125 10.6392 0.125 12.5V53C0.125 54.8607 1.63925 56.375 3.5 56.375H27.125V58.625H20.375C18.5142 58.625 17 60.1393 17 62V67.625C17 68.8659 18.0091 69.875 19.25 69.875H50.75C51.9909 69.875 53 68.8659 53 67.625V62C53 60.1393 51.4857 58.625 49.625 58.625H42.875V56.375H64.25C66.1107 56.375 67.625 54.8607 67.625 53V24.668C68.9311 24.2022 69.875 22.9648 69.875 21.5V3.5C69.875 1.63925 68.3607 0.125 66.5 0.125ZM40.625 11.375V26.7504C40.625 28.1971 41.8029 29.375 43.2496 29.375C44.0709 29.375 44.8561 28.9824 45.3489 28.3254L47.9375 24.875H65.375V45.125H42.875V37.952C42.875 32.4294 38.9217 27.7629 33.4745 26.855L29.1624 26.1361L28.7709 24.569C30.5866 23.3799 31.9287 21.5371 32.4744 19.376L32.8805 19.133C35.576 17.5164 37.25 14.5599 37.25 11.375H40.625ZM13.625 35.1136C11.0611 35.6368 9.125 37.9092 9.125 40.625V42.875H11.375V40.625C11.375 38.7643 12.8892 37.25 14.75 37.25C16.6108 37.25 18.125 38.7643 18.125 40.625V42.875H20.375V40.625C20.375 37.9092 18.4389 35.6368 15.875 35.1136V28.8283L18.7179 28.3546L22.625 34.2159V45.125H6.875V37.952C6.875 33.7996 9.67062 30.2525 13.625 29.2389V35.1136ZM23.9862 23.75H23.7882C20.0454 23.75 17 20.7226 17 17V11.8003C17 10.9452 17.6953 10.25 18.5503 10.25C18.9226 10.25 19.2939 10.2961 19.655 10.3861C22.2808 11.042 24.9841 11.375 27.6886 11.375H30.5V17.2362C30.5 20.8284 27.5784 23.75 23.9862 23.75ZM23.7882 26H23.9862C24.9335 26 25.8447 25.8448 26.6997 25.5646L27.0373 26.9146L23.75 31.8466L20.4616 26.9146L20.816 25.4994C21.7475 25.8234 22.7476 26 23.7882 26ZM24.875 34.2159L28.7821 28.3546L31.625 28.8283V36.3331C30.3189 36.7989 29.375 38.0364 29.375 39.5011C29.375 41.3619 30.8892 42.8761 32.75 42.8761C34.6107 42.8761 36.125 41.3619 36.125 39.5011C36.125 38.0364 35.1811 36.7989 33.875 36.3331V29.2389C37.8294 30.2525 40.625 33.7996 40.625 37.952V45.125H24.875V34.2159ZM33.875 39.5C33.875 40.1199 33.3699 40.625 32.75 40.625C32.1301 40.625 31.625 40.1199 31.625 39.5C31.625 38.8801 32.1301 38.375 32.75 38.375C33.3699 38.375 33.875 38.8801 33.875 39.5ZM34.8988 10.0745C34.9618 10.5121 35 10.9576 35 11.4166C35 13.3392 34.1551 15.1595 32.75 16.4274V11.1297C33.5285 10.8879 34.2474 10.5234 34.8988 10.0745ZM21.5 2.375H35C35.6199 2.375 36.125 2.88013 36.125 3.5C36.125 6.22475 34.1855 8.59062 31.5136 9.125H27.6886C25.1664 9.125 22.6475 8.8145 20.2006 8.20362C19.6617 8.06862 19.106 8 18.5503 8C16.4555 8 14.75 9.7055 14.75 11.8003V16.4443C13.3393 15.1753 12.5 13.3347 12.5 11.3739C12.5 6.41262 16.5376 2.375 21.5 2.375ZM3.5 11.375H10.2522C10.2522 11.3885 10.25 11.402 10.25 11.4166C10.25 14.5599 11.924 17.5164 14.6195 19.1341L15.0796 19.4097C15.6635 21.5011 16.991 23.2843 18.7561 24.4678L18.3388 26.1372L14.0266 26.8561C8.57825 27.7629 4.625 32.4294 4.625 37.952V45.125H2.375V12.5C2.375 11.8801 2.88013 11.375 3.5 11.375ZM20.375 60.875H27.125V63.125H19.25V62C19.25 61.3801 19.7551 60.875 20.375 60.875ZM19.25 67.625V65.375H50.75V67.625H19.25ZM49.625 60.875C50.2449 60.875 50.75 61.3801 50.75 62V63.125H42.875V60.875H49.625ZM40.625 63.125H29.375V56.375H40.625V63.125ZM64.25 54.125H3.5C2.88013 54.125 2.375 53.6199 2.375 53V47.375H65.375V53C65.375 53.6199 64.8699 54.125 64.25 54.125ZM67.625 21.5C67.625 22.1199 67.1199 22.625 66.5 22.625H46.8125L43.55 26.9754C43.3565 27.2341 42.8761 27.0744 42.875 26.7493V3.5C42.875 2.88013 43.3801 2.375 44 2.375H66.5C67.1199 2.375 67.625 2.88013 67.625 3.5V21.5Z" fill="black"/>
<path d="M63.125 27.125H56.375V33.875H63.125V27.125ZM60.875 31.625H58.625V29.375H60.875V31.625Z" fill="black"/>
<path d="M63.125 36.125H56.375V42.875H63.125V36.125ZM60.875 40.625H58.625V38.375H60.875V40.625Z" fill="black"/>
<path d="M54.125 27.125H47.375V33.875H54.125V27.125ZM51.875 31.625H49.625V29.375H51.875V31.625Z" fill="black"/>
<path d="M54.125 36.125H47.375V42.875H54.125V36.125ZM51.875 40.625H49.625V38.375H51.875V40.625Z" fill="black"/>
<path d="M29.375 49.625H36.125V51.875H29.375V49.625Z" fill="black"/>
<path d="M38.375 49.625H40.625V51.875H38.375V49.625Z" fill="black"/>
</g>
</g>
<defs>
<clipPath id="clip0_2_2472">
<rect width="69.75" height="69.75" fill="white" transform="translate(0.125 0.125)"/>
</clipPath>
<clipPath id="clip1_2_2472">
<rect width="67.5" height="67.5" fill="white" transform="translate(1.25 1.25)"/>
</clipPath>
<clipPath id="clip2_2_2472">
<rect width="33.75" height="4.5" fill="white" transform="translate(18.125 64.25)"/>
</clipPath>
<clipPath id="clip3_2_2472">
<rect width="10.125" height="4.5" fill="white" transform="translate(18.125 59.75)"/>
</clipPath>
<clipPath id="clip4_2_2472">
<rect width="10.125" height="4.5" fill="white" transform="translate(41.75 59.75)"/>
</clipPath>
<clipPath id="clip5_2_2472">
<rect width="13.5" height="9" fill="white" transform="translate(28.25 55.25)"/>
</clipPath>
<clipPath id="clip6_2_2472">
<rect width="65.25" height="9" fill="white" transform="translate(1.25 46.25)"/>
</clipPath>
<clipPath id="clip7_2_2472">
<rect width="65.25" height="36" fill="white" transform="translate(1.25 10.25)"/>
</clipPath>
<clipPath id="clip8_2_2472">
<rect width="4.5" height="4.5" fill="white" transform="translate(48.5 37.25)"/>
</clipPath>
<clipPath id="clip9_2_2472">
<rect width="4.5" height="4.5" fill="white" transform="translate(57.5 28.25)"/>
</clipPath>
<clipPath id="clip10_2_2472">
<rect width="4.5" height="4.5" fill="white" transform="translate(57.5 37.25)"/>
</clipPath>
<clipPath id="clip11_2_2472">
<rect width="4.5" height="4.5" fill="white" transform="translate(48.5 28.25)"/>
</clipPath>
<clipPath id="clip12_2_2472">
<rect width="25.875" height="17.4037" fill="white" transform="translate(11.375 1.25)"/>
</clipPath>
<clipPath id="clip13_2_2472">
<rect width="4.63499" height="10.6425" fill="white" transform="translate(31.4902 8.01123)"/>
</clipPath>
<clipPath id="clip14_2_2472">
<rect width="36" height="19.125" fill="white" transform="translate(5.75 27.125)"/>
</clipPath>
<clipPath id="clip15_2_2472">
<rect width="4.5" height="4.5" fill="white" transform="translate(30.5 37.25)"/>
</clipPath>
<clipPath id="clip16_2_2472">
<rect width="9" height="9.9225" fill="white" transform="translate(19.25 23.9526)"/>
</clipPath>
<clipPath id="clip17_2_2472">
<rect width="15.75" height="15.75" fill="white" transform="translate(15.875 9.125)"/>
</clipPath>
<clipPath id="clip18_2_2472">
<rect width="27" height="27" fill="white" transform="translate(41.75 1.25)"/>
</clipPath>
<clipPath id="clip19_2_2472">
<rect width="13.5" height="13.5" fill="white" transform="translate(48.5 5.75)"/>
</clipPath>
<clipPath id="clip20_2_2472">
<rect width="69.75" height="69.75" fill="white" transform="translate(0.125 0.125)"/>
</clipPath>
</defs>
</svg>
